<svg xmlns="http://www.w3.org/2000/svg" width="864" height="202" viewBox="0 0 864 202" version="1.1"><path d="M 278.211 64.129 C 273.709 65.427, 267.709 71.691, 266.226 76.640 C 263.175 86.825, 265.121 91.353, 277.977 103.978 C 287.370 113.201, 288 114.072, 288 117.828 C 288 123.235, 287.262 124.813, 283.928 126.537 C 279.851 128.646, 276.269 128.347, 271.400 125.494 C 266.765 122.778, 266.826 122.752, 265.059 128.234 C 263.318 133.637, 264.314 135.590, 269.475 136.889 C 286.149 141.088, 298.838 134.387, 299.816 120.868 C 300.540 110.862, 297.221 105.065, 284.311 93.777 C 278.702 88.874, 276.800 85.755, 276.800 81.462 C 276.800 76.595, 279.337 74, 284.096 74 C 286.178 74, 288.160 74.450, 288.500 75 C 290.026 77.470, 292.626 75.846, 294.276 71.392 C 295.216 68.857, 295.747 66.399, 295.456 65.929 C 293.929 63.459, 284.094 62.432, 278.211 64.129 M 375.750 63.728 C 373.688 63.944, 372 64.587, 372 65.157 C 372 65.727, 370.186 81.920, 367.969 101.143 C 365.753 120.365, 364.204 136.521, 364.528 137.046 C 365.458 138.550, 376 138.250, 376 136.720 C 376 134.685, 378.961 110.785, 379.590 107.750 C 380.819 101.809, 382.783 105.849, 387.001 123 C 390.853 138.663, 390.453 138, 396.059 138 C 400.324 138, 401.029 137.707, 401.479 135.750 C 401.763 134.512, 402.912 129.450, 404.032 124.500 C 407.015 111.316, 409.159 104, 410.041 104 C 410.878 104, 412.233 111.568, 414.248 127.500 L 415.513 137.500 421.195 137.478 C 424.321 137.465, 427.069 137.240, 427.303 136.978 C 427.536 136.715, 426.871 131.550, 425.825 125.500 C 424.778 119.450, 422.607 103.079, 420.998 89.120 C 419.390 75.162, 417.930 63.597, 417.754 63.420 C 417.577 63.244, 414.926 63.359, 411.861 63.675 L 406.289 64.250 403.657 76.875 C 399.902 94.888, 396.944 105.144, 395.624 104.728 C 394.042 104.229, 390.775 93.733, 387.459 78.500 C 384.456 64.702, 383.713 62.901, 381.128 63.168 C 380.232 63.261, 377.813 63.513, 375.750 63.728 M 449.842 63.723 L 446.184 64.110 445.519 70.305 C 445.153 73.712, 443.316 89.937, 441.437 106.361 C 439.557 122.784, 438.266 136.622, 438.569 137.111 C 438.871 137.600, 441.566 138, 444.559 138 C 448.540 138, 450 137.627, 450 136.609 C 450 133.548, 453.977 105.689, 454.487 105.180 C 455.763 103.904, 457.091 107.233, 460.002 119.006 C 465.015 139.273, 464.337 138, 470.109 138 C 473.220 138, 475.192 137.535, 475.411 136.750 C 475.602 136.063, 476.525 131.900, 477.461 127.500 C 480.220 114.536, 483.160 104, 484.019 104 C 484.905 104, 486.421 112.306, 488.307 127.500 L 489.548 137.500 495.213 137.478 C 498.329 137.465, 501.086 137.240, 501.339 136.978 C 501.593 136.715, 500.953 131.550, 499.916 125.500 C 498.879 119.450, 496.880 104.375, 495.472 92 C 494.065 79.625, 492.692 68.061, 492.421 66.301 L 491.929 63.103 486.714 63.680 C 483.846 63.998, 481.186 64.537, 480.803 64.879 C 480.419 65.221, 478.727 72.025, 477.042 80 C 473.084 98.732, 471.179 105.226, 469.778 104.759 C 468.169 104.223, 465.626 96.184, 461.874 79.771 C 458.413 64.633, 457.710 62.901, 455.128 63.168 C 454.232 63.261, 451.854 63.510, 449.842 63.723 M 706.725 63.588 C 705.863 64.473, 705.812 134.347, 706.672 136.587 C 707.390 138.459, 718.955 138.611, 719.091 136.750 C 719.333 133.433, 718.791 64.460, 718.521 64.189 C 717.741 63.406, 707.414 62.880, 706.725 63.588 M 779.456 64.255 C 779.191 64.946, 779.092 81.483, 779.237 101.005 L 779.500 136.500 794.500 136.500 L 809.500 136.500 809.500 130.500 L 809.500 124.500 800.500 124 L 791.500 123.500 791.790 114.044 C 791.949 108.842, 792.322 104.342, 792.619 104.044 C 792.915 103.745, 796.835 103.275, 801.329 103 L 809.500 102.500 809.824 99.112 C 810.527 91.749, 809.970 91.268, 800.880 91.390 C 791.095 91.522, 790.384 90.753, 791.679 81.441 L 792.505 75.500 801.263 75 C 806.080 74.725, 810.016 74.162, 810.010 73.750 C 810.005 73.338, 810 70.750, 810 68 L 810 63 794.969 63 C 783.833 63, 779.812 63.325, 779.456 64.255 M 311.375 65.466 C 311.065 66.272, 310.967 79.434, 311.156 94.716 C 311.489 121.576, 311.579 122.660, 313.871 127.316 C 317.451 134.586, 322.481 137.500, 331.451 137.500 C 341.091 137.500, 346.250 135.131, 349.814 129.069 L 352.500 124.500 353.069 95.500 C 353.382 79.550, 353.439 65.917, 353.195 65.204 C 352.884 64.299, 351.054 63.997, 347.125 64.204 L 341.500 64.500 341 91 C 340.569 113.835, 340.255 117.947, 338.732 120.736 C 335.643 126.387, 328.327 126.387, 325.309 120.736 C 323.779 117.871, 323.604 114.429, 323.785 90.750 L 323.989 64 317.963 64 C 313.592 64, 311.783 64.402, 311.375 65.466 M 532.244 100.504 C 522.210 120.581, 514 137.231, 514 137.504 C 514 137.777, 530.651 138, 551.003 138 L 588.005 138 569.500 101 C 559.322 80.650, 550.881 64, 550.741 64 C 550.601 64, 542.278 80.427, 532.244 100.504 M 600.779 93.500 C 600.658 109.725, 600.546 126.263, 600.529 130.250 L 600.500 137.500 606.221 137.799 L 611.943 138.098 612.221 124.381 C 612.391 116.033, 612.906 110.529, 613.538 110.319 C 614.109 110.130, 617.484 116.276, 621.038 123.978 L 627.500 137.982 634.317 137.991 C 642.540 138.002, 642.651 139.337, 632.796 119.624 L 625.860 105.747 629.917 101.849 C 632.149 99.705, 634.642 96.659, 635.459 95.080 C 640.696 84.952, 636.497 70.411, 626.901 65.449 C 624.929 64.429, 620.679 64, 612.550 64 L 601 64 600.779 93.500 M 664.650 77.250 C 663.104 84.537, 659.626 100.273, 656.920 112.219 C 654.214 124.164, 652 134.627, 652 135.469 C 652 136.670, 653.268 137, 657.892 137 L 663.784 137 664.651 132.250 L 665.519 127.500 673.476 127.500 L 681.433 127.500 682.775 132.250 L 684.116 137 689.558 137 C 695.872 137, 696.004 136.665, 693.501 127.005 C 692.677 123.823, 689.530 109.358, 686.508 94.860 C 683.487 80.362, 680.778 67.487, 680.488 66.250 C 680.012 64.213, 679.371 64, 673.711 64 L 667.461 64 664.650 77.250 M 732 68.962 L 732 73.925 741.250 74.212 C 749.872 74.480, 750.477 74.636, 750.157 76.500 C 749.969 77.600, 745.356 91.480, 739.907 107.345 C 734.457 123.209, 730.251 136.597, 730.558 137.095 C 730.866 137.593, 739.416 138, 749.559 138 L 768 138 768 132.500 L 768 127 757.969 127 C 750.077 127, 747.817 126.687, 747.375 125.534 C 746.767 123.950, 750.875 110.965, 760.139 85.193 C 763.362 76.224, 766 67.787, 766 66.443 L 766 64 749 64 L 732 64 732 68.962 M 821.667 64.667 C 821.300 65.033, 821 81.683, 821 101.667 L 821 138 827 138 L 833 138 833 123.917 C 833 113.095, 833.290 109.929, 834.250 110.248 C 834.938 110.477, 838.313 116.702, 841.750 124.082 L 848.001 137.500 855.032 137.794 L 862.064 138.089 860.670 134.794 C 859.903 132.983, 856.413 125.770, 852.914 118.766 L 846.553 106.031 850.668 101.766 C 856.468 95.753, 858.004 92.189, 857.978 84.800 C 857.949 76.608, 855.424 71.044, 849.926 67.062 C 845.785 64.062, 845.463 64, 834.017 64 C 827.591 64, 822.033 64.300, 821.667 64.667 M 613.035 76.934 C 612.466 77.998, 612 82.893, 612 87.812 C 612 98.759, 612.981 100.153, 618.711 97.347 C 623.210 95.145, 624.965 92.021, 624.985 86.184 C 625.004 80.839, 623.780 78.455, 620.020 76.510 C 616.123 74.495, 614.281 74.607, 613.035 76.934 M 834.200 76.200 C 833.424 76.976, 833 80.998, 833 87.593 C 833 99.123, 833.601 100.029, 839.592 97.526 C 847.925 94.044, 848.129 78.983, 839.881 76.108 C 835.915 74.726, 835.670 74.730, 834.200 76.200 M 536.728 104.532 C 529.177 119.645, 523 132.232, 523 132.505 C 523 132.777, 535.578 133, 550.952 133 L 578.903 133 577.538 129.750 L 576.173 126.500 555.148 126 L 534.123 125.500 542.397 108.500 L 550.671 91.500 555.835 101.732 C 558.676 107.359, 561 112.197, 561 112.482 C 561 112.767, 557.708 113, 553.685 113 L 546.370 113 544.701 116.500 L 543.032 120 558.075 120 L 573.117 120 562.417 99.250 C 556.531 87.838, 551.433 78.175, 551.086 77.778 C 550.739 77.380, 544.278 89.420, 536.728 104.532 M 671.110 102.986 C 668.257 115.377, 668.182 115, 673.500 115 C 677.312 115, 678 114.698, 678 113.028 C 678 110.121, 674.811 95.637, 673.956 94.660 C 673.551 94.198, 672.271 97.945, 671.110 102.986" stroke="none" fill="#151515" fill-rule="evenodd"/><path d="M 11.990 5.250 C 10.172 6.488, 7.743 8.770, 6.592 10.323 C 4.507 13.138, 4.500 13.426, 4.500 101 C 4.500 188.574, 4.507 188.862, 6.592 191.677 C 7.743 193.230, 10.172 195.513, 11.990 196.750 L 15.296 199 112.500 199 L 209.704 199 213.010 196.750 C 217.406 193.758, 219.937 190.189, 221.043 185.423 C 222.234 180.284, 222.234 21.716, 221.043 16.577 C 219.937 11.811, 217.406 8.242, 213.010 5.250 L 209.704 3 112.500 3 L 15.296 3 11.990 5.250 M 91.314 44.950 C 86.608 47.819, 85.691 50.279, 86.224 58.591 C 86.667 65.486, 86.574 65.890, 84.433 66.427 C 78.528 67.910, 70.269 82.356, 68.470 94.348 C 67.838 98.566, 67.541 98.992, 65.632 98.412 C 54.627 95.066, 60.100 81.159, 77.450 68.382 C 85.415 62.516, 83.316 62.831, 73.280 69.007 C 61.119 76.491, 55 84.523, 55 93.001 C 55 96.435, 55.613 97.813, 58.369 100.569 C 60.308 102.508, 63.597 104.435, 66.119 105.109 L 70.500 106.280 70.153 110.589 C 69.622 117.192, 73.618 124.825, 81.985 133.192 C 85.843 137.050, 89 140.448, 89 140.743 C 89 142.101, 85.194 143.939, 82.323 143.968 C 76.026 144.031, 70.059 132.667, 68.131 116.939 C 67.431 111.231, 67.247 110.833, 66.515 113.437 C 66.033 115.151, 66.187 120.111, 66.885 125.350 C 68.924 140.663, 75.208 150, 83.476 150 C 86.895 150, 95.401 145.003, 96.396 142.411 C 96.879 141.153, 97.629 141.378, 100.663 143.692 C 107.049 148.563, 120.654 148.059, 135.388 142.405 C 137.210 141.705, 137.931 145.410, 136.710 149.199 C 134.734 155.328, 121.976 155.523, 107.440 149.647 C 97.582 145.661, 98.859 147.635, 109.572 152.942 C 126.863 161.508, 140.072 159.874, 143.054 148.800 C 143.764 146.163, 143.762 143.805, 143.048 141.234 C 141.643 136.175, 141.733 135, 143.522 135 C 146.346 135, 153.678 127.110, 156.315 121.233 C 157.737 118.064, 159.475 112.442, 160.177 108.740 C 161.323 102.700, 161.662 102.072, 163.477 102.623 C 169.727 104.519, 170.807 110.817, 166.122 118.054 C 162.884 123.057, 155.493 130.363, 149.500 134.486 C 144.343 138.034, 147.904 136.853, 154.880 132.701 C 167.246 125.343, 174 116.647, 174 108.084 C 174 104.553, 173.408 103.208, 170.631 100.431 C 168.692 98.492, 165.403 96.565, 162.881 95.891 L 158.500 94.720 158.853 90.331 C 159.368 83.922, 155.188 76.048, 146.791 67.614 C 140.258 61.052, 140.015 60.641, 141.623 58.864 C 142.614 57.769, 144.659 57, 146.582 57 C 152.993 57, 158.930 68.246, 160.869 84.061 C 161.569 89.769, 161.753 90.167, 162.485 87.563 C 163.768 82.999, 161.337 67.322, 158.408 61.274 C 152.876 49.853, 143.512 47.945, 134.752 56.452 C 131.535 59.576, 131.046 59.761, 129.840 58.306 C 124.986 52.452, 109.194 52.616, 93.383 58.683 C 92.350 59.080, 92 58.215, 92 55.262 C 92 49.104, 94.491 47.486, 103.858 47.561 C 111.272 47.620, 116.136 48.881, 126.250 53.364 C 131.717 55.788, 130.844 54.657, 124.070 50.543 C 111.878 43.136, 98.137 40.790, 91.314 44.950 M 107 57.684 C 105.075 57.894, 101.144 58.531, 98.264 59.100 L 93.029 60.136 94.969 63.939 C 96.967 67.856, 112.452 83, 114.458 83 C 115.077 83, 117.428 81.088, 119.683 78.750 C 126.960 71.205, 128.859 64.810, 124.913 61.134 C 122.237 58.640, 113.566 56.970, 107 57.684 M 136.158 65.932 C 133.597 70.489, 130 83.794, 130 88.711 C 130 91.682, 130.463 92.295, 133.733 93.662 C 138.907 95.824, 149.588 95.683, 152.089 93.419 C 154.523 91.217, 154.603 85.387, 152.270 80.284 C 150.394 76.181, 143.428 66.563, 140.302 63.758 C 138.427 62.076, 138.283 62.152, 136.158 65.932 M 549.607 63.582 C 548.719 65.897, 548.894 66.716, 549.928 65.082 C 550.572 64.065, 556.092 74.192, 569.428 100.855 L 588.029 138.047 550.514 137.774 C 529.881 137.623, 512.999 137.838, 513 138.250 C 513 138.662, 530.100 139, 551 139 C 571.900 139, 589 138.773, 589 138.495 C 589 137.656, 551.025 62, 550.604 62 C 550.390 62, 549.941 62.712, 549.607 63.582 M 806.950 62.560 C 809.673 63.076, 809.929 63.499, 810.287 68.065 L 810.674 73.011 810.587 67.756 C 810.501 62.564, 810.460 62.497, 807.250 62.250 C 804.139 62.011, 804.126 62.024, 806.950 62.560 M 311.651 63.750 C 311.395 64.162, 314.052 64.350, 317.556 64.166 L 323.928 63.833 324.253 74.166 L 324.578 84.500 324.789 73.750 L 325 63 318.559 63 C 315.016 63, 311.908 63.337, 311.651 63.750 M 341.681 63.703 C 341.409 64.141, 343.678 64.342, 346.722 64.150 C 350.565 63.907, 352.548 64.213, 353.205 65.150 C 353.968 66.237, 354.073 66.208, 353.747 65 C 353.462 63.943, 351.692 63.412, 347.759 63.203 C 344.689 63.039, 341.954 63.264, 341.681 63.703 M 479.607 64.582 C 479.273 65.452, 479.032 66.689, 479.070 67.332 C 479.109 67.974, 479.489 67.600, 479.915 66.500 C 480.467 65.076, 481.959 64.327, 485.095 63.900 L 489.500 63.300 484.857 63.150 C 481.448 63.040, 480.053 63.420, 479.607 64.582 M 600.453 64.262 C 600.187 64.956, 600.095 78.569, 600.250 94.512 L 600.532 123.500 600.766 93.782 L 601 64.063 612.750 63.747 L 624.500 63.430 612.719 63.215 C 603.993 63.056, 600.812 63.327, 600.453 64.262 M 672.974 63.746 C 676.535 63.945, 679.790 64.645, 680.209 65.304 C 680.723 66.113, 680.974 65.934, 680.985 64.750 C 680.998 63.225, 680.067 63.025, 673.750 63.193 L 666.500 63.385 672.974 63.746 M 748.686 63.748 L 765.872 64.047 766.286 66.773 C 766.667 69.283, 766.712 69.241, 766.850 66.250 L 767 63 749.250 63.225 L 731.500 63.450 748.686 63.748 M 821.651 63.750 C 821.394 64.162, 824.855 64.379, 829.342 64.231 C 844.043 63.745, 845.704 63.352, 833.809 63.175 C 827.379 63.079, 821.908 63.337, 821.651 63.750 M 719.447 97 C 719.447 114.875, 719.582 122.188, 719.748 113.250 C 719.914 104.312, 719.914 89.687, 719.748 80.750 C 719.582 71.813, 719.447 79.125, 719.447 97 M 310.413 83.500 C 310.414 93.400, 310.564 97.315, 310.746 92.199 C 310.928 87.084, 310.927 78.984, 310.744 74.199 C 310.561 69.415, 310.412 73.600, 310.413 83.500 M 778.449 100.500 C 778.449 119.200, 778.584 126.709, 778.749 117.186 C 778.913 107.663, 778.913 92.363, 778.748 83.186 C 778.583 74.009, 778.449 81.800, 778.449 100.500 M 84.405 71.974 C 82.015 72.940, 77.107 78.872, 74.527 83.913 C 73.043 86.813, 69 97.597, 69 98.657 C 69 99.593, 79.268 98.821, 84.322 97.504 C 93.477 95.120, 99.549 91.859, 99.228 89.500 C 98.430 83.621, 96.394 78.652, 93.304 75.042 C 89.816 70.967, 88.239 70.424, 84.405 71.974 M 353.430 96 C 353.430 108.925, 353.573 114.213, 353.747 107.750 C 353.921 101.287, 353.921 90.712, 353.747 84.250 C 353.573 77.787, 353.430 83.075, 353.430 96 M 278.655 75.829 C 277.745 76.835, 277 78.060, 277 78.551 C 277 79.043, 277.729 78.404, 278.621 77.131 C 279.968 75.208, 280.963 74.875, 284.525 75.159 C 286.881 75.347, 288.600 75.162, 288.346 74.750 C 287.391 73.206, 280.316 73.993, 278.655 75.829 M 734.500 74.634 C 741.570 75.374, 750.779 75.441, 750.349 74.750 C 750.092 74.338, 745.746 74.072, 740.691 74.160 C 735.636 74.248, 732.850 74.461, 734.500 74.634 M 801.510 74.939 C 793.872 75.416, 792.496 75.766, 792.362 77.270 C 792.251 78.510, 792.345 78.585, 792.675 77.520 C 793.051 76.309, 794.961 76, 802.073 76 C 807.358 76, 811 75.592, 811 75 C 811 74.450, 810.888 74.085, 810.750 74.189 C 810.612 74.293, 806.455 74.630, 801.510 74.939 M 834.086 76.396 C 833.322 77.317, 833.038 81.317, 833.253 88.146 L 833.578 98.500 833.789 87.718 C 833.988 77.567, 834.132 76.883, 836.250 76.031 C 837.773 75.419, 837.974 75.106, 836.872 75.063 C 835.977 75.029, 834.724 75.628, 834.086 76.396 M 612.365 87.500 C 612.368 93, 612.536 95.122, 612.738 92.216 C 612.941 89.311, 612.939 84.811, 612.734 82.216 C 612.528 79.622, 612.363 82, 612.365 87.500 M 858.320 85 C 858.320 88.575, 858.502 90.037, 858.723 88.250 C 858.945 86.463, 858.945 83.537, 858.723 81.750 C 858.502 79.963, 858.320 81.425, 858.320 85 M 705.365 97.500 C 705.368 103, 705.536 105.122, 705.738 102.216 C 705.941 99.311, 705.939 94.811, 705.734 92.216 C 705.528 89.622, 705.363 92, 705.365 97.500 M 323.336 100 C 323.336 104.125, 323.513 105.813, 323.728 103.750 C 323.944 101.688, 323.944 98.313, 323.728 96.250 C 323.513 94.188, 323.336 95.875, 323.336 100 M 110.827 95.922 C 108.870 97.461, 108.465 98.541, 108.792 101.342 C 109.350 106.123, 113.316 107.922, 117.978 105.511 C 120.106 104.411, 120.969 103.363, 120.581 102.351 C 120.261 101.518, 120 99.820, 120 98.579 C 120 97.130, 119.088 95.905, 117.453 95.161 C 114.086 93.626, 113.687 93.672, 110.827 95.922 M 850.589 101.909 C 848.490 104.058, 847.013 106.421, 847.307 107.159 C 847.726 108.210, 847.859 108.184, 847.921 107.042 C 847.964 106.240, 849.666 103.878, 851.703 101.792 C 853.740 99.706, 855.181 98, 854.906 98 C 854.631 98, 852.688 99.759, 850.589 101.909 M 566.490 108.980 C 568.970 113.919, 571 118.182, 571 118.453 C 571 118.723, 564.587 119.083, 556.750 119.252 L 542.500 119.559 557.759 119.780 L 573.018 120 568 110 C 565.240 104.500, 562.756 100, 562.481 100 C 562.205 100, 564.009 104.041, 566.490 108.980 M 144.500 103.487 C 135.287 105.986, 130 108.733, 130 111.022 C 130 118.963, 136.713 130, 141.543 130 C 145.525 130, 150.775 124.358, 154.929 115.613 C 157.049 111.151, 159.066 106.263, 159.411 104.750 C 160.035 102.013, 160.013 102, 154.769 102.066 C 151.871 102.102, 147.250 102.742, 144.500 103.487 M 801.500 103 L 793.500 103.633 801.191 103.817 C 805.450 103.918, 809.158 103.554, 809.500 103 C 809.840 102.450, 809.979 102.083, 809.809 102.183 C 809.639 102.284, 805.900 102.652, 801.500 103 M 77.223 107.557 C 74.534 109.440, 74.355 113.030, 76.617 119.693 C 78.177 124.288, 84.563 133.532, 88.813 137.346 C 90.845 139.170, 90.899 139.132, 93.446 134.106 C 96.083 128.904, 99 117.230, 99 111.884 C 99 109.422, 98.391 108.644, 95.532 107.449 C 90.838 105.488, 80.086 105.551, 77.223 107.557 M 833 123.952 L 833 137.905 826.750 138.287 L 820.500 138.669 827 138.584 L 833.500 138.500 834 124.622 L 834.500 110.744 837.935 117.854 C 839.824 121.765, 841.540 124.793, 841.749 124.585 C 842.418 123.915, 835.013 110, 833.987 110 C 833.385 110, 833 115.436, 833 123.952 M 612.217 124.339 L 612 138.178 605.998 137.839 C 602.697 137.652, 599.997 137.838, 599.998 138.250 C 600.002 139.630, 612.024 139.101, 612.563 137.697 C 612.838 136.981, 612.921 130.568, 612.749 123.447 L 612.435 110.500 612.217 124.339 M 553.500 113 L 545.500 113.633 554.309 113.817 C 559.971 113.934, 562.897 113.643, 562.500 113 C 562.160 112.450, 561.796 112.083, 561.691 112.183 C 561.586 112.284, 557.900 112.652, 553.500 113 M 791.405 118 L 791.500 123.500 800.500 124 L 809.500 124.500 809.500 130.657 C 809.500 134.043, 809.837 136.604, 810.250 136.348 C 811.475 135.587, 811.102 125.502, 809.800 124.200 C 809.061 123.461, 805.434 123, 800.352 123 L 792.105 123 791.707 117.750 L 791.309 112.500 791.405 118 M 300.300 119 C 300.300 122.025, 300.487 123.263, 300.716 121.750 C 300.945 120.237, 300.945 117.763, 300.716 116.250 C 300.487 114.737, 300.300 115.975, 300.300 119 M 535.202 121.522 C 534.005 123.985, 533.236 126, 533.493 126 C 534.170 126, 538.211 117.877, 537.758 117.425 C 537.549 117.215, 536.398 119.059, 535.202 121.522 M 109.870 121.729 C 102.549 128.329, 99.866 137.372, 104.356 140.313 C 109.449 143.651, 122.557 144.157, 133.402 141.435 L 135.938 140.799 134.049 137.096 C 132.167 133.406, 119.903 121.089, 116.069 119.037 C 114.367 118.126, 113.401 118.545, 109.870 121.729 M 820.365 127.500 C 820.368 133, 820.536 135.122, 820.738 132.216 C 820.941 129.311, 820.939 124.811, 820.734 122.216 C 820.528 119.622, 820.363 122, 820.365 127.500 M 747.336 124 C 747.499 126.485, 747.559 126.500, 757.500 126.552 L 767.500 126.605 757.815 126.268 C 748.757 125.953, 748.099 125.788, 747.651 123.716 C 747.242 121.823, 747.196 121.864, 747.336 124 M 665.391 128.425 C 665.072 129.255, 665.043 130.511, 665.327 131.217 C 665.610 131.923, 665.878 131.488, 665.921 130.250 C 665.996 128.126, 666.415 128, 673.417 128 C 677.496 128, 681.062 128.461, 681.342 129.025 C 681.621 129.589, 681.735 129.476, 681.595 128.775 C 681.192 126.765, 666.152 126.440, 665.391 128.425 M 296.561 130.548 C 295.643 131.949, 293.453 133.972, 291.696 135.044 C 289.938 136.116, 289.028 136.994, 289.673 136.996 C 291.218 137.001, 296.771 132.296, 298.058 129.892 C 299.537 127.128, 298.505 127.580, 296.561 130.548 M 522.999 132.250 C 522.999 132.662, 535.712 132.906, 551.250 132.791 C 579.675 132.580, 576.450 132.229, 541.749 131.756 C 531.436 131.615, 522.998 131.838, 522.999 132.250 M 695 135 C 695 136.754, 694.333 137, 689.583 137 C 686.604 137, 683.938 136.539, 683.658 135.975 C 683.379 135.411, 683.264 135.524, 683.404 136.225 C 683.569 137.053, 685.824 137.604, 689.829 137.798 C 695.853 138.088, 696 138.035, 696 135.548 C 696 134.146, 695.775 133, 695.500 133 C 695.225 133, 695 133.900, 695 135 M 651.116 135.750 C 651.006 137.890, 651.329 137.991, 657.750 137.807 L 664.500 137.615 658.314 137.261 C 653.519 136.987, 652.028 136.525, 651.680 135.204 C 651.358 133.977, 651.199 134.130, 651.116 135.750 M 626.254 137 C 626.553 138.107, 628.445 138.578, 633.481 138.799 C 637.232 138.964, 640.663 138.739, 641.106 138.299 C 641.548 137.860, 638.718 137.652, 634.818 137.837 C 629.718 138.080, 627.462 137.799, 626.787 136.837 C 626.038 135.771, 625.930 135.804, 626.254 137 M 706.015 137.250 C 706.002 138.751, 706.889 138.974, 712.250 138.815 L 718.500 138.630 713.022 138.255 C 710.009 138.048, 707.203 137.344, 706.787 136.690 C 706.279 135.891, 706.026 136.075, 706.015 137.250 M 730.871 138.273 C 731.298 138.699, 739.939 138.923, 750.073 138.771 L 768.500 138.496 749.298 137.998 C 738.737 137.724, 730.445 137.848, 730.871 138.273 M 787.206 137.741 C 790.895 137.932, 797.195 137.934, 801.206 137.743 C 805.218 137.553, 802.200 137.396, 794.500 137.395 C 786.800 137.393, 783.518 137.549, 787.206 137.741 M 847.894 138.299 C 848.337 138.739, 851.804 138.959, 855.599 138.789 L 862.500 138.480 854.795 137.990 C 850.558 137.720, 847.452 137.860, 847.894 138.299 M 276.250 138.716 C 277.762 138.945, 280.238 138.945, 281.750 138.716 C 283.262 138.487, 282.025 138.300, 279 138.300 C 275.975 138.300, 274.738 138.487, 276.250 138.716" stroke="none" fill="#5d5d9b" fill-rule="evenodd"/></svg>